Date: April 25-26, 1994


Format                           : MPEG-PS
File size                        : 73.4 MiB
Duration                         : 7mn 21s
Overall bit rate                 : 1 395 Kbps

Video
ID                               : 224 (0xE0)
Format                           : MPEG Video
Format version                   : Version 1
Format settings, Matrix          : Default
Duration                         : 7mn 21s
Bit rate mode                    : Constant
Bit rate                         : 1 115 Kbps
Nominal bit rate                 : 1 152 Kbps
Width                            : 352 pixels
Height                           : 240 pixels
Display aspect ratio             : 4:3
Frame rate                       : 29.970 fps
Scan type                        : Progressive
Bits/(Pixel*Frame)               : 0.441
Stream size                      : 58.7 MiB (80%)

Audio
ID                               : 192 (0xC0)
Format                           : MPEG Audio
Format version                   : Version 1
Format profile                   : Layer 2
Duration                         : 7mn 21s
Bit rate mode                    : Constant
Bit rate                         : 224 Kbps
Channel(s)                       : 2 channels
Sampling rate                    : 44.1 KHz
Resolution                       : 16 bits
Stream size                      : 11.8 MiB (16%)

